<?xml version="1.0" encoding="UTF-8"?>
<svg id="_レイヤー_1" data-name="レイヤー_1" xmlns="http://www.w3.org/2000/svg" version="1.1" viewBox="0 0 169.2 20.1">
  <!-- Generator: Adobe Illustrator 29.1.0, SVG Export Plug-In . SVG Version: 2.1.0 Build 142)  -->
  <defs>
    <style>
      .st0 {
        fill: #140700;
      }
    </style>
  </defs>
  <g>
    <path class="st0" d="M6.1,14.7v-.6c-.5,0-.9-.3-.9-.6v-4.8c0-.3.4-.6.8-.6v-.5H.1v.5c.4,0,.8.3.8.6v4.8c0,.3-.4.6-.9.6v.6h6.1Z"/>
    <path class="st0" d="M12.5,14.7h2.6v-.6c-.4,0-.7-.2-.7-.6v-4.9c0-.4.3-.6.7-.6v-.5h-3.3v.5c.4,0,.7.2.7.6v2.4l-2.5-3.5h-2.9v.5c.4,0,.7.2.7.6v4.9c0,.4-.3.6-.7.6v.6h3.9v-.6c-.4,0-.6-.2-.6-.6v-1.6l2.1,2.8Z"/>
    <path class="st0" d="M19.7,10.6h-.3v-2.5h.3c.7,0,1.4.5,1.4,1.2s-.7,1.2-1.4,1.2M19.7,13.9h-.3v-2.5h.3c.7,0,1.4.5,1.4,1.2s-.7,1.2-1.4,1.2M22.6,11.1s0,0,0,0,0,0,0,0c.6-.2,1.3-.7,1.3-1.7s-1.1-1.8-1.7-1.8h-6.2v.5c.4,0,.7.2.7.6v4.9c0,.4-.3.6-.7.6v.6h6.2c.6,0,1.7-.5,1.7-1.8s-.7-1.6-1.3-1.7"/>
    <path class="st0" d="M20.4,15c-1.6,3-4.8,5.1-8.5,5.1s-6.9-2.1-8.5-5.1h.5c1.5,2.9,4.5,4.8,8,4.8s6.4-2,7.9-4.8h.6Z"/>
    <path class="st0" d="M5.7,4.1c-.9.8-1.6,1.9-2.1,3.1h-1.1c.6-1.8,1.7-3.5,3.1-4.7-.2.2-.2.5-.2.6-.8.8-1.5,1.6-2.1,2.6,0,0,0,.2.1.3.4-.8.9-1.5,1.5-2.1.2,0,.5.1.7.1"/>
    <path class="st0" d="M18.1,3c1.3,1.1,2.3,2.5,2.9,4.1h0c-.6-1.6-1.6-3.1-2.9-4.2h0Z"/>
    <path class="st0" d="M21.3,7.2c-.5-1.7-1.4-3.2-2.7-4.3.2.3.2.5.2.7,1,1,1.7,2.3,2.2,3.7h.3Z"/>
    <path class="st0" d="M18.8,3.9c.9.9,1.6,2,2,3.3h-.6c-.5-1.3-1.3-2.4-2.3-3.3.3.1.7,0,.9,0"/>
    <path class="st0" d="M6.2,2.5s0,0,0,0c.1-.1.3-.5.3-.7,0,0,0,0,0,0,0,.3-.2.5-.3.7M6.6,1.6c0,0-.1.2-.4.3-.2.1-.3.3-.2.6,0,.1,0,.3-.1.4-1.4,1.1-2.4,2.6-3,4.3h0c.6-1.7,1.6-3.1,3-4.2.2-.1,0,0,.4-.2.6-.2.4-.8.3-1.1"/>
    <path class="st0" d="M5.5,3.7c.1,0,.5,0,.8-.1-.2.2-.5.3-.8.1M6.1,3.4c-.2,0-.4,0-.7.3.4.3.8.2.8.1,0,0,.2-.2.3-.3-.2,0-.3,0-.4-.1"/>
    <path class="st0" d="M6.3,3.1c0,0,.4.1.6,0,0,.1-.5.2-.6,0M7,2.9c0-.1-.4-.2-.5-.1,0,0-.3.3-.4.3.4.4.8.2.8.2,0,0,.1-.1.2-.2,0,0-.2-.1-.2-.2"/>
    <path class="st0" d="M7.1,2.4c.2-.2.3-.4.4-.6,0,.2,0,.5-.4.6M7.2,1.7c-.2,0-.4.5-.4.6,0,.1-.2.4-.3.5,0,0,.3-.2.5-.3.4-.2.5-.5.5-.9,0,0-.1,0-.3.1"/>
    <path class="st0" d="M8.1,1.5c.1-.2.3-.1.4-.1-.1,0-.3,0-.4.1M8.7,1.3c-.2-.1-.4-.1-.6,0-.2.1-.3.7-.4.7h.6c.2-.1.3-.2.4-.4,0,0,.1-.2.2-.3,0,0-.2,0-.3,0"/>
    <path class="st0" d="M7.2,2.8c.2,0,.6,0,.9,0-.2.2-.6.2-.9,0M8,2.5c-.3-.2-.6,0-.7,0,0,0,0,.1-.2.1.5.5.9.4,1.1.2,0,0,0-.1.2-.2-.1,0-.3-.2-.3-.2"/>
    <path class="st0" d="M7.9,2.3c.1,0,.5.1.7,0-.1.1-.5.1-.7,0M7.7,2.2c.5.4.9.3,1,.2,0,0,.1-.1.2-.2-.6-.5-.9-.3-1.2,0"/>
    <path class="st0" d="M8.8,1.9c.2.1.5,0,.7-.1,0,.1-.4.3-.7.1M9.6,1.7c-.3-.3-.7-.2-.8,0,0,0-.1.1-.2.2.6.5,1,.2,1.1,0,0,0,0-.1.1-.1,0,0,0,0-.2-.1"/>
    <path class="st0" d="M8.8,1.1c.2,0,.5-.5.6-.6,0,.2-.4.6-.6.6M9,.5c-.2,0-.3.3-.3.4,0,.1,0,.3,0,.3,0,0,.1,0,.2,0,.5,0,.6-.3.6-.9,0,0-.2.1-.5.2"/>
    <path class="st0" d="M10.6,1c.1,0,.5,0,.5,0,0,0-.4.1-.5,0M11.5.7c-.2-.1-.7-.1-1,.3,0,0,.1,0,.3.2.2.2.6,0,.8,0,0,0,.1-.2.2-.2,0,0-.1,0-.3-.2"/>
    <path class="st0" d="M9.7,1.3c.1,0,.8.1.9.1,0,0-.8,0-.9-.1M10.4,1.1c-.3-.2-.4-.1-.6,0,0,0-.2.1-.3.2.1,0,.1,0,.3.2.4.4.7.2.8.1,0,0,.2-.2.3-.2-.1,0-.2-.1-.4-.3"/>
    <path class="st0" d="M10.4.3c0-.2.4-.2.4-.2-.2,0-.3,0-.4.2M10.5,0c-.4,0-.7.4-.7.5,0,.1,0,.2-.1.3.2,0,.4,0,.8-.2,0,0,.2-.2.2-.2,0,0,0-.3.2-.4,0,0-.2,0-.4,0"/>
    <path class="st0" d="M8,.7c-.2,0-.5.4-.4,1,0-.1.1-.2.4-.4.4-.2.4-.6.4-.7,0,0-.2,0-.4,0"/>
    <path class="st0" d="M15.5,2.2c0,0-.3-.2-.4-.2.1,0,.3-.1.3-.2,0,0,.2-.1.4,0-.1,0-.3.3-.3.4"/>
    <path class="st0" d="M16.1,1.7c0-.1-.2-.3-.2-.5,0,0-.3,0-.4,0,0,0,.1.3.1.4.1,0,.3.1.4.2"/>
    <path class="st0" d="M17.2,3.1c.1,0,.7,0,.8,0,0,0-.6.1-.8,0M17.6,2.8c-.2,0-.3,0-.7.4.1,0,.4.1.6.1s.4-.1.6-.3c0,0-.3-.2-.5-.2"/>
    <path class="st0" d="M17.9,2c.2.1.4.6.4.8,0-.1-.3-.7-.4-.8M18.3,2.5c0-.2,0-.4-.2-.4-.2,0-.3-.2-.4-.2,0,.1,0,.3,0,.3,0,0,0,.6.6.7,0,0,0-.4,0-.4"/>
    <path class="st0" d="M17,1.5c0,0,.4.6.4.7,0,0-.3-.6-.4-.7M17.2,1.5c-.1,0-.2,0-.3-.2,0,0,0,.2,0,.2,0,.4,0,.6.3.7.1,0,.2,0,.3,0,0,0,0-.2,0-.4,0-.1,0-.4-.3-.5"/>
    <path class="st0" d="M16.5,2.7c.3-.1.7-.1.8-.1-.2,0-.7,0-.8.1M17.2,2.5c0,0-.5-.2-.7.1,0,.1-.2.2-.2.2.5.3.6.3.8.2.2-.2.4-.2.6-.3-.1,0-.3-.2-.4-.2"/>
    <path class="st0" d="M15.9.9c.3,0,.4.1.4.4,0-.2-.2-.4-.4-.4M16.1.8c-.2,0-.3,0-.4,0,0,0,0,.1,0,.2,0,0,0,.6.9.8-.1-.8-.4-.9-.6-1"/>
    <path class="st0" d="M15.5,2.3c.2-.2.8-.2,1-.1-.2,0-.9,0-1,.1M16.5,2c0,0-.4-.2-.5-.2s-.2,0-.3.1c0,0-.4.4-.5.4.6.4,1,.1,1.1,0,0,0,.3-.2.4-.3,0,0-.2,0-.2-.1"/>
    <path class="st0" d="M15,.4c.3,0,.5.4.5.6,0-.3-.4-.6-.5-.6M14.8.3c0,0-.2,0-.3,0,0,0,0,.1,0,.2,0,.4.5.8,1,.7,0-.4,0-.9-.7-.9"/>
    <path class="st0" d="M13.5.2c.1,0,.5.2.6.4,0,0-.5-.3-.6-.4M14.4.6c0,0-.2-.5-.6-.5-.2,0-.3,0-.4,0,0,0,.1.2.1.2,0,.2.2.5.4.4.1,0,.4,0,.6,0,0,0-.1-.2-.1-.3"/>
    <path class="st0" d="M14.5,1.8c.1,0,.6-.2.7-.3,0,0-.4.3-.7.3M15.2,1.4c-.1,0-.6-.1-.7.2,0,.1-.1.2-.2.2.5.3,1,0,1,0,0-.2.1-.2.2-.2-.1,0-.3,0-.4-.1"/>
    <path class="st0" d="M13.5,1.4c0-.2.4-.3.6-.3-.2,0-.4.2-.6.3M13.9.9c-.3,0-.4.2-.5.3,0,.2-.2.2-.3.3.8.3,1,0,1.1,0,0-.1.2-.3.3-.4,0,0-.3-.2-.7-.2"/>
    <path class="st0" d="M12.4.9c.2,0,.9,0,1,0,0,0-.7.2-1,0M12.8.5c-.4,0-.5.3-.6.4.1,0,.3.3.7.3.4,0,.5-.3.6-.3-.1,0-.3-.3-.7-.3"/>
    <path class="st0" d="M131.3,5.9l3.6-3-1.8-1.9-8.5,7.2,1.9,1.8,1.5-1.4c.3-.2.5-.1.5.2v8.8h2.6V6.5c0-.2,0-.5.2-.6"/>
    <path class="st0" d="M137.7,6h8.4v2.1h-9.1v1.6h8.2v2.1h-8.2v1.3h8.2v2.1h-8.2v2.5h-2.5v-8.8c0-.3-.2-.4-.4-.2l-1,.8-1.7-1.8,7.5-6.2,1.8,1.8-3,2.5c-.1.1-.1.4,0,.4"/>
  </g>
  <polygon class="st0" points="97 2.1 92.2 2.1 92.2 1 90.1 1 90.1 2.1 84.9 2.1 84.9 1 82.7 1 82.7 2.1 77.6 2.1 77.6 4.1 82.7 4.1 82.7 5.1 84.9 5.1 84.9 4.1 90.1 4.1 90.1 5.1 92.2 5.1 92.2 4.1 97 4.1 97 2.1"/>
  <path class="st0" d="M88.5,7.3h4.4v.4h-4.4v-.4ZM91.8,14c-.2-.1-.1-.3,0-.3h5.1v-1.9h-7.8v-.7h6.9v-1.7h-12.6c-.4,0-.7-.4-.7-.8v-1.4h3.6v.3c0,.7.6,1.2,1.2,1.2h6.4c.7,0,1.3-.6,1.3-1.2v-.3h1.9v-1.8h-1.9v-1h-2.2v1h-4.4v-1h-2.2v1h-3.6v-1h-2.2v1h-2.9v1.8h2.9v2.6c0,.7.6,1.2,1.2,1.2h4.5v.7h-8.6v1.9h6.2c.3,0,.3.2,0,.3-1.8.7-4.6,1.4-6.3,1.4v1.9c2.7,0,6.5-1,8.2-2.1.2-.2.4-.2.4,0v1.9h2.8v-1.8c0-.3.1-.3.3-.2,1.9,1.1,5.5,2.4,7.7,2.4l.2-2c-1.2,0-3.6-.8-5.4-1.5"/>
  <rect class="st0" x="45.3" y="1.6" width="2.4" height="1"/>
  <polygon class="st0" points="43 5.7 43 4.6 39.3 4.6 39.3 5.7 40.7 5.7 40.7 7.5 39.4 7.7 39.4 8.8 43.1 8.2 43.1 7.1 42.2 7.2 42.2 5.7 43 5.7"/>
  <g>
    <path class="st0" d="M48,7.1s-.7.5-1,.5c-.4,0-1.2-.5-1.8-1.7-.3-.6-.4-1.3-.5-2h3.4v-1.2h-3.4v-1.3h-1.4v1.3h-4.3v1.2h4.4c.1.9.3,1.8.8,2.7.7,1.4,1.8,2.2,2.7,2.3.9,0,1.9-.9,1.9-.9l-.7-1Z"/>
    <path class="st0" d="M36.2,7.6l.8.9.7-.7-1.5-1.9c0-.1,0-.2.2-.2h1.1v-1.1h-1.5v-.7h1.5v-1.1h-1.5v-1.4h-1.1v1.4h-.8v-1.4h-1.2v2.5h2v.7h-2v1.1h1.2c.2,0,.3,0,.2.2l-1.7,1.5.7.8,1.2-1.1c.1-.1.3,0,.3,0v1.7h1.1v-1.2c0-.1.1-.2.2,0"/>
    <path class="st0" d="M31.6,6.1l.8.6.7-.8-1.8-1.5c0,0,0-.3.1-.3h1.3v-1.1h-1.3v-1.4h-1.1v1.4h-1.9v1.1h1.5c.2,0,.2.3.1.5l-1.9,3.9.9.5,1-1.8c0-.1.3-.1.3,0v1.8h1.1v-2.7c0-.2.2-.2.3,0"/>
  </g>
  <polygon class="st0" points="46 16.5 46 13.7 47.8 13.7 47.8 12.5 46 12.5 46 10.3 44.8 10.3 44.8 12.5 43 12.5 43 13.7 44.8 13.7 44.8 16.5 42.8 16.5 42.8 17.6 48 17.6 48 16.5 46 16.5"/>
  <path class="st0" d="M43.1,11.6c0-.3-.4-.6-.7-.6h-1.1v-.7h-1.2v.7h-1.4v1.2h2.4c.2,0,.3.2.1.3l-3,2.5.8.9,1-.8v2.6h1.2v-2.4l.7.6.8-.8-1.4-1.1,1.7-1.4v-.8Z"/>
  <rect class="st0" x="30.4" y="12.5" width="5.2" height="1.2"/>
  <polygon class="st0" points="37.5 14.8 38.4 13.9 34.6 10 31.5 10 27.7 14.2 28.8 15 32.3 11.2 33.8 11.2 37.5 14.8"/>
  <g>
    <path class="st0" d="M34.8,16.5h-3.1c-.2,0-.4-.1-.3-.3l.3-.6h3l.3.5c0,.1.2.4-.1.4M37,14.4h-8.1v1.2h1.2l-.5,1.4c0,.4,0,.6.6.6h5.7c.6,0,.8-.7.5-1.2l-.5-.8h1v-1.2Z"/>
    <path class="st0" d="M60.6,8.2c-.2-.2,0-.6.2-.6h1.5v-2.3h-3.7v-1.8h2.9V1.5h-8.1v2.1h2.9v1.8h-3.4v2.3h2.9c.3,0,.4.2.2.5l-3.9,6.2,1.8,1.2,1.9-2.9c0-.3.5-.2.5,0v4.4h2.3v-7.2c0-.5.5-.3.6-.2l1.6,2.1,1.5-1.4-1.7-2.3Z"/>
  </g>
  <rect class="st0" x="62.2" y="8.1" width="2.2" height="9.1"/>
  <rect class="st0" x="70.3" y="3.8" width="2.1" height="3.5"/>
  <rect class="st0" x="63.2" y="4.3" width="2.1" height="2.9"/>
  <path class="st0" d="M64.8,1.7l7-.8v2.3l-8.4,1v-.8c0-1.1.7-1.6,1.4-1.7"/>
  <rect class="st0" x="62.2" y="8.1" width="2.2" height="9.1"/>
  <rect class="st0" x="66.7" y="4.3" width="2.1" height="2.9"/>
  <g>
    <path class="st0" d="M70.6,11.2c0,0,0,.2-.2.2h-3.2c0,0-.2,0-.2-.2v-.9c0-.2.1-.3.3-.3h2.9c.2,0,.3.1.3.3v.9ZM70.6,14.4c0,0,0,.2-.2.2h-3.2c0,0-.2,0-.2-.2v-1.3c0,0,0-.2.2-.2h3.2c0,0,.2,0,.2.2v1.3ZM71.4,8.1h-5.2c-.6,0-1.2.5-1.2,1.2v8h2v-.8c0,0,0-.2.2-.2h3.2c0,0,.2,0,.2.2v.8h2v-8c0-.6-.5-1.2-1.2-1.2"/>
    <path class="st0" d="M108.3,6.8v-.4h3.5v-1.7h-3.5v-.4h3.3v-1.7h-3.3v-1.2h-2.3v1.2h-1.1c-.3,0-.5-.2-.5-.5v-.7h-2.2v1.8c0,.6.5,1,1,1h2.7v.4h-4v1.7h4v.4h-3c-.6,0-1,.5-1,1v2.2h2.2v-1.1c0-.3.2-.5.5-.5h1.3v1.6h2.3v-1.6h1.1c.3,0,.5.2.5.5v1.1h2.3v-2.2c0-.6-.5-1-1-1h-2.8Z"/>
    <path class="st0" d="M117.4,7.9c.6,0,.8-.5.8-.8V2.2h2.5v6.3c0,.9-.9,1.5-1.5,1.5h-2.9l-.4-1.2-.5-.9h2Z"/>
  </g>
  <rect class="st0" x="113.4" y="2.7" width="2.3" height="5.3"/>
  <path class="st0" d="M117.4,12.8c-.4.2-.9.4-1.4.5-.3,0-.5,0-.6-.1-.1-.1-.1-.3-.2-.4,0,0,0-.2,0-.2h2.1c.1,0,.1.1,0,.2M108.2,15.1c-.2,0-.2-.1-.2-.1-.1,0-.2-.4,0-.4,1.5-.4,2.9-.9,4-1.3.2-.1.3,0,.3,0,0,0,.3.4.4.5-.9.4-3,1.1-4.5,1.3M118.7,15.1c-.2,0-.2-.3.1-.4.3-.1,1.7-1,2-1.3l-.5-.7c0-.1,0-.2,0-.2h1.1v-1.9h-7.6v-2.4h-2.9v2.4h-8.9v1.9h3.5c.2,0,.2.2,0,.2-1.2.4-2.8.9-4,1.1l.8,2.2c.3,0,1.1-.3,2.5-.6.2,0,.3,0,.3.2,0,.8.3,2.1,1.7,2.1,2.2,0,7.4-1.8,7.4-1.8,1.5,1.3,4.1,1.8,6.8,1.9l.7-2.5c-.8.1-2.3.2-2.9-.1"/>
  <rect class="st0" x="150.4" y="1.7" width="8.8" height="2.5"/>
  <g>
    <path class="st0" d="M156.6,8.6c0,.3-.2.5-.5.5h-2.7c-.3,0-.5-.2-.5-.5v-1.3c0-.3.2-.5.5-.5h2.7c.3,0,.5.2.5.5v1.3ZM158.2,4.7h-6.8c-.5,0-1,.4-1,1v12h2.6v-6.4h5.2c.5,0,1-.4,1-1v-4.6c0-.5-.4-1-1-1"/>
    <path class="st0" d="M167.6,9.3c-.1,0-.2.1-.2.2v8.1h-2.5v-8.1c0-.1-.1-.2-.2-.2h-2c-.1,0-.2.1-.2.2v8.1h-2.5V6c0-2,1.5-2.4,2.9-2.8l5.4-1.3.6,2.4-5.2,1.2c-.5.1-.8.4-1,.8,0,.4.1.5.5.5h6.1v2.5h-1.6Z"/>
  </g>
</svg>