<?xml version="1.0" encoding="UTF-8"?>
<svg id="_レイヤー_1" data-name="レイヤー_1" xmlns="http://www.w3.org/2000/svg" version="1.1" viewBox="0 0 115.3 19.6">
  <!-- Generator: Adobe Illustrator 29.1.0, SVG Export Plug-In . SVG Version: 2.1.0 Build 142)  -->
  <defs>
    <style>
      .st0 {
        fill: #69ba75;
      }

      .st1 {
        fill: #29298a;
      }
    </style>
  </defs>
  <path class="st0" d="M9.4.3H1.6L0,6.4h4.5c1.2-2.3,2.9-4.3,4.9-6.1"/>
  <path class="st1" d="M69.2.3l-2.8,10.6c-.4,1.5-.8,2.8-2.6,2.8s-1.5-1.3-1.1-2.8l2.8-10.6h-6.9l-3,11.3c-1.5,5.5,1.3,8.1,6.6,8.1s9.4-2.5,10.9-8.1l3-11.3h-6.9Z"/>
  <path class="st1" d="M56.8.3h-7.5l-5,6.1c-.6.7-1.2,1.4-1.5,2.2h-.1L45,.3h-6.7l-5.1,19h6.7l2-8h.1c0,.8.4,1.5.6,2.2l1.7,5.8h8l-3.9-9.8L56.8.3Z"/>
  <path class="st1" d="M32,19.3L30.4.3h-7.6l-11.7,19h7.3l1.2-2.4h5.2v2.4s7.3,0,7.3,0ZM22,12.4l2.8-5.8h.3c0,.8-.2,1.6-.2,2.4v3.3h-2.9Z"/>
  <path class="st1" d="M107.1,0c-5.7,0-11.5,3.9-13.1,9.9-1.6,6.1,2.1,9.8,7.8,9.8s11.4-3.7,13.1-9.8c1.6-6-2.1-9.9-7.8-9.9M108,10c-.6,2.2-2.4,3.7-4.5,3.7s-3.1-1.5-2.6-3.7c.5-2,2.4-3.7,4.5-3.7s3.1,1.7,2.5,3.7"/>
  <path class="st1" d="M16.2,6.4l1.6-6.1h-.8C11.2.3,5.3,4.6,3.9,9.9l-2.5,9.5h6.9l3.5-12.9h4.5Z"/>
  <path class="st1" d="M92.9,5.6c1.2-4.4-2.3-5.3-6-5.3h-8l-5.1,19h9.4c3.3,0,7.3-1.3,8.3-5.2.6-2.3-.3-3.8-2.1-4.5v-.2c1.8-.5,3.1-2.2,3.6-3.8M85.3,13.2c-.4,1.6-2.1,1.6-3.2,1.6h-.8l.8-3.2h.7c1.1,0,2.9,0,2.4,1.6M86.4,6.2c-.3,1.3-1.5,1.4-2.5,1.4h-.6l.7-2.7h.5c1,0,2.3,0,1.9,1.3"/>
</svg>